<?xml version="1.0" encoding="UTF-8"?>
<svg width="200" height="200" viewBox="0 0 200 200" fill="none" xmlns="http://www.w3.org/2000/svg">
  <!-- Main chat bubble -->
  <path d="M40 40C40 35.5817 43.5817 32 48 32H152C156.418 32 160 35.5817 160 40V120C160 124.418 156.418 128 152 128H120L100 148L80 128H48C43.5817 128 40 124.418 40 120V40Z" fill="#4F46E5"/>
  
  <!-- Chat bubble tail -->
  <path d="M100 148L120 128H152C156.418 128 160 124.418 160 120V40C160 35.5817 156.418 32 152 32H48C43.5817 32 40 35.5817 40 40V120C40 124.418 43.5817 128 48 128H80L100 148Z" fill="#4F46E5"/>
  
  <!-- Message dots -->
  <circle cx="70" cy="80" r="8" fill="white"/>
  <circle cx="100" cy="80" r="8" fill="white"/>
  <circle cx="130" cy="80" r="8" fill="white"/>
</svg>